<svg width="512" height="512" viewBox="0 0 512 512" fill="none" xmlns="http://www.w3.org/2000/svg">
<rect width="512" height="512" rx="102.4" fill="#171717"/>
<path d="M215.919 103.99C218.7 104.215 221.388 105.107 223.748 106.596L224.896 107.392L225.976 108.27C228.064 110.116 229.679 112.442 230.675 115.047L231.159 116.505L297.472 352.457L319.964 272.443C322.411 263.719 327.655 256.038 334.881 250.572C342.097 245.113 350.902 242.165 359.949 242.176H394.24C401.875 242.176 408.063 248.365 408.063 256C408.063 263.635 401.875 269.824 394.24 269.824H359.923C356.904 269.819 353.961 270.798 351.553 272.618C349.747 273.985 348.315 275.771 347.368 277.802L346.585 279.923L314.104 395.495L313.618 396.954C312.457 399.991 310.455 402.647 307.84 404.608C304.848 406.852 301.211 408.064 297.472 408.064C293.732 408.064 290.095 406.852 287.104 404.608C284.488 402.647 282.486 399.991 281.325 396.954L280.84 395.495L214.515 159.529L192.037 239.557C189.599 248.246 184.384 255.896 177.2 261.359C170.016 266.821 161.251 269.798 152.226 269.824H117.76C110.125 269.824 103.936 263.635 103.936 256C103.936 248.365 110.125 242.176 117.76 242.176H152.145C155.153 242.166 158.079 241.175 160.474 239.354C162.867 237.534 164.603 234.973 165.415 232.077L197.896 116.505L198.382 115.047C199.542 112.01 201.544 109.354 204.16 107.392L205.308 106.596C208.059 104.861 211.256 103.936 214.528 103.936L215.919 103.99Z" fill="white"/>
</svg>
